<svg width="58" height="64" viewBox="0 0 58 64" fill="none" xmlns="http://www.w3.org/2000/svg">
<path d="M57.3753 7.68C48.9285 2.78857 39.1788 0 28.8 0C18.4212 0 8.67145 2.78857 0.269579 7.68C0.0898596 9.50857 0 11.3371 0 13.2114C0 34.9257 11.5919 53.8514 28.8 64C46.0081 53.8514 57.6 34.9257 57.6 13.2114C57.6 11.3371 57.5101 9.50857 57.3753 7.68ZM28.8 61.3486C12.3557 51.1543 2.20156 32.8229 2.20156 13.2114C2.20156 11.7943 2.24649 10.4229 2.33635 9.05143C10.4237 4.57143 19.5445 2.24 28.7551 2.24C38.0106 2.24 47.1314 4.57143 55.1738 9.05143C55.2637 10.4229 55.3086 11.7943 55.3086 13.2114C55.3984 32.8229 45.2443 51.1543 28.8 61.3486Z" fill="#44CCFF"/>
<path d="M55.3985 13.2114C55.3985 32.8228 45.2444 51.1543 28.8 61.3486V50.5143V19.1543V6.71999V2.23999C38.0556 2.23999 47.1763 4.57142 55.2188 9.05142C55.3536 10.4228 55.3985 11.84 55.3985 13.2114Z" fill="#44CCFF"/>
<path d="M6.8742 13.6228C8.17716 13.6228 9.25548 12.5257 9.25548 11.2C9.25548 9.87424 8.17716 8.7771 6.8742 8.7771C5.57123 8.7771 4.49292 9.87424 4.49292 11.2C4.49292 12.5257 5.57123 13.6228 6.8742 13.6228Z" fill="#44CCFF"/>
<path d="M50.7258 13.6228C52.0287 13.6228 53.107 12.5257 53.107 11.2C53.107 9.87424 52.0287 8.7771 50.7258 8.7771C49.4228 8.7771 48.3445 9.87424 48.3445 11.2C48.3445 12.5257 49.3779 13.6228 50.7258 13.6228Z" fill="#121212"/>
<path d="M28.8 54.0801V58.9258C27.497 58.9258 26.4187 57.8286 26.4187 56.5029C26.4187 55.1772 27.497 54.0801 28.8 54.0801Z" fill="#44CCFF"/>
<path d="M31.1813 56.5029C31.1813 57.8286 30.103 58.9258 28.8 58.9258V54.0801C30.103 54.0801 31.1813 55.1772 31.1813 56.5029Z" fill="#121212"/>
<path d="M28.755 27.0174V14.3545C28.755 14.3545 25.2504 11.4745 23.8127 10.9717C18.4211 15.5431 18.3762 19.0174 17.2529 22.8574L28.755 27.0174Z" fill="#44CCFF"/>
<path d="M16.0847 25.6003L9.39014 29.6232L28.7549 37.0289V30.2175L16.0847 25.6003Z" fill="#44CCFF"/>
<path d="M28.7551 27.0171V14.3543C28.7551 14.3543 32.2597 11.4743 33.6974 10.9714C39.089 15.5429 39.1339 19.0171 40.2572 22.8572L28.7551 27.0171Z" fill="#121212"/>
<path d="M41.4253 25.6001L48.1199 29.623L28.7551 37.0287V30.2172L41.4253 25.6001Z" fill="#121212"/>
<path d="M28.7551 37.4856H16.624C17.2081 40.3199 19.0952 46.3999 24.3969 46.3999C25.8796 46.3999 27.3622 45.9427 28.7551 45.257V37.4856Z" fill="#44CCFF"/>
<path d="M28.7551 37.4856H40.8862C40.3021 40.3199 38.415 46.3999 33.1133 46.3999C31.6306 46.3999 30.148 45.9427 28.7551 45.257V37.4856Z" fill="#121212"/>
</svg>
